<?xml version="1.0" encoding="utf-8"?>
<!-- Generator: Adobe Illustrator 22.1.0, SVG Export Plug-In . SVG Version: 6.00 Build 0)  -->
<svg version="1.1" id="Layer_1" xmlns="http://www.w3.org/2000/svg" xmlns:xlink="http://www.w3.org/1999/xlink" x="0px" y="0px"
	 viewBox="0 0 841.9 595.3" style="enable-background:new 0 0 841.9 595.3;" xml:space="preserve">
<style type="text/css">
	.st0{fill:#003F51;}
	.st1{font-family:'ErasITC-Light';}
	.st2{font-size:40px;}
	.st3{fill:none;stroke:url(#SVGID_1_);stroke-width:1.3;stroke-miterlimit:10;}
	.st4{fill:#00586E;}
	.st5{font-size:29px;}
	.st6{fill:#066E88;}
	.st7{fill:url(#SVGID_2_);}
	.st8{fill:url(#SVGID_3_);}
	.st9{fill:url(#SVGID_4_);}
</style>
<text transform="matrix(1 0 0 1 341.1704 347.5137)" class="st0 st1 st2">E</text>
<linearGradient id="SVGID_1_" gradientUnits="userSpaceOnUse" x1="443.7428" y1="347.8801" x2="443.7428" y2="330.1241">
	<stop  offset="5.128205e-03" style="stop-color:#00495C"/>
	<stop  offset="0.4128" style="stop-color:#1C6C89"/>
	<stop  offset="0.7026" style="stop-color:#894B9D"/>
	<stop  offset="1" style="stop-color:#393561"/>
</linearGradient>
<path class="st3" d="M431.9,347.7l3.7-16.2c0,0,7.7,8.8,16.9,0l3.1,16.2"/>
<text transform="matrix(1 0 0 1 361.333 348.1155)" class="st4 st1 st5">vent</text>
<text transform="matrix(1 0 0 1 413.8335 347.7357)" class="st6 st1 st2">S</text>
<linearGradient id="SVGID_2_" gradientUnits="userSpaceOnUse" x1="444.0594" y1="331.2473" x2="444.0594" y2="301.3299">
	<stop  offset="0" style="stop-color:#FFF33B;stop-opacity:0"/>
	<stop  offset="0.1061" style="stop-color:#E3C770;stop-opacity:0.1294"/>
	<stop  offset="0.4923" style="stop-color:#894B9D;stop-opacity:0.6"/>
	<stop  offset="1" style="stop-color:#393561"/>
</linearGradient>
<path class="st7" d="M436.4,330.7c2.1-3.2,1.3-8.1-3.3-13.8c-4.6-5.7,0.9-15.3,11.9-15.6c11.1-0.3,13.2,12.3,10.7,15.6
	c-3,3.9-6.8,9.5-3.7,14.3"/>
<g>
	<linearGradient id="SVGID_3_" gradientUnits="userSpaceOnUse" x1="444.0594" y1="333.4868" x2="444.0594" y2="321.3412">
		<stop  offset="0" style="stop-color:#FFF33B;stop-opacity:0"/>
		<stop  offset="0.1061" style="stop-color:#E3C770;stop-opacity:0.1294"/>
		<stop  offset="0.4923" style="stop-color:#894B9D;stop-opacity:0.6"/>
		<stop  offset="1" style="stop-color:#393561"/>
	</linearGradient>
	<path class="st8" d="M443.1,333.5c0,0-3.2-0.4-3.4-2.4c-0.3-2.2-0.1-1.3,0-2.7c0.1-1.3-0.6-2.2-0.6-2.2s1.4,0.4,1.3,1.6
		c0,0,0.6-0.9,0.4-2.5s1.5-2.3,1.5-2.3s-1.2,1.2,0.1,2.8c0,0,1-1,1.4-2.3c0,0,0.4-1-0.3-2.1c0,0,1.8,0.3,2,1.9
		c0.2,1.5,0.6,2.3,0.8,2.4c0,0,0.3-1,0.6-1.2c0.3-0.3,1.2-0.8,1.2-0.8s-1,1.1-0.3,2.4s1.6,2.5,1.3,3.8c-0.4,1.2-1.2,2.5-3.3,3.3
		c0,0,1.3-1.6,1.3-2.5s-0.3-1.7-0.3-1.7s-0.3,1.2-0.8,1.7c0,0,0.1-1.9-0.8-2.5c-1-0.6-0.8-1.9-0.8-1.9s-1.1,1.3-1,2.4
		c0,0-0.9-1-1.3-1.3c0,0,0.8,1.4-0.3,3C441.6,330.2,440.8,331.6,443.1,333.5z"/>
	<linearGradient id="SVGID_4_" gradientUnits="userSpaceOnUse" x1="444.241" y1="333.1345" x2="444.241" y2="325.5634">
		<stop  offset="0" style="stop-color:#FFF33B;stop-opacity:0"/>
		<stop  offset="0.1061" style="stop-color:#E3C770;stop-opacity:0.1294"/>
		<stop  offset="0.4923" style="stop-color:#894B9D;stop-opacity:0.6"/>
		<stop  offset="1" style="stop-color:#393561"/>
	</linearGradient>
	<path class="st9" d="M443.6,333.1c0,0-2-0.2-2.2-1.5c-0.2-1.4-0.1-0.8,0-1.7c0.1-0.8-0.4-1.4-0.4-1.4s0.9,0.3,0.8,1
		c0,0,0.4-0.5,0.2-1.6s0.9-1.5,0.9-1.5s-0.7,0.8,0.1,1.7c0,0,0.6-0.6,0.9-1.4c0,0,0.3-0.6-0.2-1.3c0,0,1.1,0.2,1.2,1.2
		c0.1,1,0.4,1.5,0.5,1.5c0,0,0.2-0.6,0.4-0.8c0.2-0.2,0.8-0.5,0.8-0.5s-0.6,0.7-0.2,1.5c0.4,0.8,1,1.6,0.8,2.3
		c-0.2,0.8-0.8,1.6-2,2.1c0,0,0.8-1,0.8-1.6c0-0.6-0.2-1.1-0.2-1.1s-0.2,0.8-0.5,1c0,0,0.1-1.2-0.5-1.6c-0.6-0.4-0.5-1.2-0.5-1.2
		s-0.7,0.8-0.7,1.5c0,0-0.5-0.7-0.8-0.8c0,0,0.5,0.9-0.2,1.9C442.7,331.1,442.2,332,443.6,333.1z"/>
</g>
</svg>
